HIERARCHY
ROOT Hips
{
	OFFSET 0.000000 0.000000 0.000000
	CHANNELS 6 Xposition Yposition Zposition Zrotation Yrotation Xrotation 
	JOINT LHipJoint
	{
		OFFSET 0.000000 0.000000 0.000000
		CHANNELS 3 Zrotation Yrotation Xrotation
		JOINT LeftUpLeg
		{
			OFFSET 1.363060 -1.794630 0.839290
			CHANNELS 3 Zrotation Yrotation Xrotation
			JOINT LeftLeg
			{
				OFFSET 2.448110 -6.726130 0.000000
				CHANNELS 3 Zrotation Yrotation Xrotation
				JOINT LeftFoot
				{
					OFFSET 2.562200 -7.039590 0.000000
					CHANNELS 3 Zrotation Yrotation Xrotation
					JOINT LeftToeBase
					{
						OFFSET 0.157640 -0.433110 2.322550
						CHANNELS 3 Zrotation Yrotation Xrotation
						End Site
						{
							OFFSET 0.000000 0.000000 0.000000
						}
					}
				}
			}
		}
	}
	JOINT RHipJoint
	{
		OFFSET 0.000000 0.000000 0.000000
		CHANNELS 3 Zrotation Yrotation Xrotation
		JOINT RightUpLeg
		{
			OFFSET -1.305520 -1.794630 0.839290
			CHANNELS 3 Zrotation Yrotation Xrotation
			JOINT RightLeg
			{
				OFFSET -2.542530 -6.985550 0.000000
				CHANNELS 3 Zrotation Yrotation Xrotation
				JOINT RightFoot
				{
					OFFSET -2.568260 -7.056230 0.000000
					CHANNELS 3 Zrotation Yrotation Xrotation
					JOINT RightToeBase
					{
						OFFSET -0.164730 -0.452590 2.363150
						CHANNELS 3 Zrotation Yrotation Xrotation
						End Site
						{
							OFFSET 0.000000 0.000000 0.000000
						}
					}
				}
			}
		}
	}
	JOINT LowerBack
	{
		OFFSET 0.000000 0.000000 0.000000
		CHANNELS 3 Zrotation Yrotation Xrotation
		JOINT Spine
		{
			OFFSET 0.028270 2.035590 -0.193380
			CHANNELS 3 Zrotation Yrotation Xrotation
			JOINT Spine1
			{
				OFFSET 0.056720 2.048850 -0.042750
				CHANNELS 3 Zrotation Yrotation Xrotation
				JOINT Neck
				{
					OFFSET 0.000000 0.000000 0.000000
					CHANNELS 3 Zrotation Yrotation Xrotation
					JOINT Neck1
					{
						OFFSET -0.054170 1.746240 0.172020
						CHANNELS 3 Zrotation Yrotation Xrotation
						JOINT Head
						{
							OFFSET 0.104070 1.761360 -0.123970
							CHANNELS 3 Zrotation Yrotation Xrotation
							End Site
							{
								OFFSET 0.000000 0.000000 0.000000
							}
						}
					}
				}
				JOINT LeftShoulder
				{
					OFFSET 0.000000 0.000000 0.000000
					CHANNELS 3 Zrotation Yrotation Xrotation
					JOINT LeftArm
					{
						OFFSET 3.362410 1.200890 -0.311210
						CHANNELS 3 Zrotation Yrotation Xrotation
						JOINT LeftForeArm
						{
							OFFSET 4.983000 -0.000000 -0.000000
							CHANNELS 3 Zrotation Yrotation Xrotation
							JOINT LeftHand
							{
								OFFSET 3.483560 -0.000000 -0.000000
								CHANNELS 3 Zrotation Yrotation Xrotation
								JOINT LeftFingerBase
								{
									OFFSET 0.000000 0.000000 0.000000
									CHANNELS 3 Zrotation Yrotation Xrotation
									JOINT LeftHandIndex1
									{
										OFFSET 0.715260 -0.000000 -0.000000
										CHANNELS 3 Zrotation Yrotation Xrotation
										End Site
										{
											OFFSET 0.000000 0.000000 0.000000
										}
									}
								}
								JOINT LThumb
								{
									OFFSET 0.000000 0.000000 0.000000
									CHANNELS 3 Zrotation Yrotation Xrotation
									End Site
									{
										OFFSET 0.000000 0.000000 0.000000
									}
								}
							}
						}
					}
				}
				JOINT RightShoulder
				{
					OFFSET 0.000000 0.000000 0.000000
					CHANNELS 3 Zrotation Yrotation Xrotation
					JOINT RightArm
					{
						OFFSET -3.136600 1.374050 -0.404650
						CHANNELS 3 Zrotation Yrotation Xrotation
						JOINT RightForeArm
						{
							OFFSET -5.241900 -0.000000 -0.000000
							CHANNELS 3 Zrotation Yrotation Xrotation
							JOINT RightHand
							{
								OFFSET -3.444170 -0.000000 -0.000000
								CHANNELS 3 Zrotation Yrotation Xrotation
								JOINT RightFingerBase
								{
									OFFSET 0.000000 0.000000 0.000000
									CHANNELS 3 Zrotation Yrotation Xrotation
									JOINT RightHandIndex1
									{
										OFFSET -0.622530 -0.000000 -0.000000
										CHANNELS 3 Zrotation Yrotation Xrotation
										End Site
										{
											OFFSET 0.000000 0.000000 0.000000
										}
									}
								}
								JOINT RThumb
								{
									OFFSET 0.000000 0.000000 0.000000
									CHANNELS 3 Zrotation Yrotation Xrotation
									End Site
									{
										OFFSET 0.000000 0.000000 0.000000
									}
								}
							}
						}
					}
				}
			}
		}
	}
}
MOTION
Frames: 7
Frame Time: 0.033333
4.611907 17.217582 -27.276810 -1.720516 -5.401545 12.779291 -10.540857 6.409537 4.948202 -7.944545 0.726215 -9.472515 -7.068743 -3.520223 4.237545 1.052574 0.377770 -7.524296 0.706058 0.280146 -40.534767 8.912387 -5.422862 1.136629 14.419063 7.725588 -15.582605 0.120402 13.266315 -3.476050 -0.445233 -1.292157 6.314730 1.040169 -0.390447 -26.140415 -1.147185 -1.372900 -4.309036 2.698870 1.033732 -5.712018 -4.429340 -4.097481 -0.225456 10.029281 -12.608710 -10.362552 -3.166671 -0.280763 -0.089897 0.019006 0.012064 0.004305 -1.201787 6.493387 -1.653698 -73.983531 4.098094 10.152157 4.347426 -43.862855 -3.033282 13.338558 -2.659752 -0.351410 -0.254688 0.282087 0.042598 -0.079052 -0.013170 -0.048393 0.024417 0.126151 -0.041712 9.740998 -7.003171 12.996958 67.649096 -5.839188 -9.366694 2.062966 45.586760 1.357461 -2.287384 5.913506 -0.140359 0.052603 0.148945 -0.060690 0.063851 -0.012680 -0.080417 0.020211 0.073082 0.041000 
4.457268 17.332902 -26.687843 -1.313571 -4.110034 8.477301 -11.101656 4.910785 8.063529 -6.041082 -2.608786 -13.342528 -5.418836 0.301506 17.045617 1.006143 -0.035749 -3.542839 0.380203 0.239666 -40.250132 7.706671 -3.632828 3.214863 13.812236 6.767281 -14.104669 2.880858 8.324402 1.981742 -0.460425 -0.361252 1.449269 0.783381 -0.229605 -24.738877 -0.322651 0.194138 -1.958706 1.617090 -1.371215 -6.269267 -6.057628 -5.227280 1.557903 9.969508 -12.086289 -9.071177 -3.355487 -0.332562 0.029894 0.027213 0.019927 -0.013237 -2.190360 7.771498 -2.166744 -72.202571 6.696399 12.411717 3.076578 -42.070786 -3.087998 13.615395 -3.168306 -0.408148 -0.226596 0.254674 0.030065 -0.074483 -0.009316 -0.061727 0.040142 0.138565 -0.035716 13.237883 -3.464396 13.635613 67.550273 -2.901798 -8.341659 0.341614 41.910255 -0.036289 -2.788274 5.758502 -0.146950 0.150954 0.111279 -0.056729 0.063965 -0.006624 -0.081944 0.022650 0.082442 0.050335 
4.279159 17.457340 -26.124699 -2.001832 -2.244764 6.144430 -12.209030 4.817251 10.222611 -3.669415 -3.688845 -18.641423 -3.170632 7.647825 26.227243 1.353403 7.064644 3.372144 0.547424 0.091505 -37.397564 8.351361 -4.319446 4.950621 14.230742 5.289719 -13.473120 3.610004 6.093408 4.806672 0.321794 0.834038 0.546572 0.478933 -0.131810 -26.752089 -0.011839 1.832925 -0.917571 1.740894 -1.899161 -4.321821 -7.872965 -5.856614 2.194861 10.682495 -11.141497 -9.055580 -3.396251 -0.385285 0.294491 0.009136 0.019402 -0.007726 -2.934768 6.194938 -1.796209 -69.554360 6.482193 13.603513 4.901999 -42.453087 -4.141138 14.155544 -2.708776 -0.355394 -0.191983 0.194102 0.010195 -0.076905 -0.011765 -0.066144 0.035838 0.143998 -0.030537 17.623519 -3.475456 9.536184 66.184972 0.295010 -5.849239 -1.572298 35.764529 -1.292746 -3.113462 4.966216 -0.117561 0.179764 -0.090188 -0.043828 0.062309 -0.006120 -0.078370 0.010084 0.076661 0.061765 
4.101165 17.571765 -25.590736 -2.004296 -2.977884 7.852691 -13.421060 4.857641 9.227014 -2.736252 -3.434681 -25.264759 -0.750429 10.039884 33.633043 0.695891 12.716138 8.225102 0.804274 0.028924 -35.676569 8.875132 -3.409728 4.819206 13.313684 3.990072 -14.002589 5.428989 3.970552 4.971696 0.813825 3.524203 1.820400 0.546795 -0.142043 -29.079316 0.376791 2.641390 -1.948604 -0.068073 -3.254130 -4.566629 -7.001803 -3.307177 2.510067 11.063783 -9.640660 -9.321286 -3.380736 -0.399856 -0.185448 -0.000258 0.024964 -0.007185 -4.026042 7.331090 -1.224712 -68.533140 6.683868 12.654638 4.955026 -41.024592 -5.013173 13.327074 -2.120507 -0.284208 -0.168659 0.257167 -0.001023 -0.088348 -0.014182 -0.067968 0.026396 0.148728 -0.022556 17.452764 -2.158350 5.878901 67.815856 0.468344 -3.039416 -0.337798 33.399361 -0.822667 -2.392909 5.031939 -0.087411 0.176797 -0.084377 -0.043774 0.071369 0.000190 -0.083353 0.008612 0.068825 0.052784 
3.935486 17.671323 -25.089479 -2.247351 -3.276243 11.017511 -13.375904 4.062820 7.731422 -1.398046 -4.612806 -29.140939 -1.207448 8.259851 35.934301 0.660321 14.047174 6.382685 1.017236 -0.005357 -33.397429 9.687724 -2.819137 3.458607 12.986602 3.332734 -13.697374 5.956746 3.923667 3.770475 0.594882 4.302119 3.199825 0.810237 -0.226313 -29.360777 -0.921187 5.810358 -3.681718 0.769453 -1.273190 -4.734780 -6.814080 -4.241312 1.694834 11.912183 -8.304650 -9.064086 -3.595263 -0.381327 -0.236967 -0.007508 0.038852 -0.004199 -4.064332 7.953068 -0.308596 -66.123882 6.453826 10.698696 4.777664 -40.060089 -5.515250 11.777874 -1.463625 -0.181155 -0.187032 0.193921 -0.012508 -0.105805 -0.016357 -0.066194 0.013171 0.141492 -0.022216 18.181397 -3.426541 4.231094 66.961287 1.217285 -0.458835 0.898067 33.348613 -0.684351 -1.606290 5.070539 -0.031696 0.038259 -0.054864 -0.043433 0.067044 0.013257 -0.086673 0.011838 0.062432 0.052571 
3.771840 17.758044 -24.620636 -3.964160 -4.788672 14.507045 -12.314881 3.105313 6.041521 -1.318070 -3.469637 -32.991250 0.814657 4.931930 37.282875 1.337305 10.845114 -2.514922 1.144273 0.030746 -31.741637 12.465403 -1.706930 3.600127 12.301628 3.585813 -14.547121 5.333006 4.668897 1.772423 0.043106 5.263128 4.621318 1.295352 -0.340843 -29.805810 -0.906632 6.232413 -5.145478 1.155898 -1.774896 -6.073392 -7.840415 -2.106725 1.600969 12.877222 -7.116762 -8.309420 -3.603390 -0.347933 -0.362817 -0.013104 0.053056 -0.011936 -4.195092 9.890767 0.481375 -63.707912 7.310336 7.418080 3.284708 -39.578635 -4.389926 10.533346 -1.461858 -0.146708 -0.174716 0.058706 -0.024522 -0.114341 -0.023963 -0.057861 -0.000403 0.136185 -0.030740 20.714271 -1.165323 2.371087 65.713340 0.850011 1.648525 2.179266 33.043094 0.111142 -0.332701 5.357621 0.033600 0.003607 0.041698 -0.048904 0.066214 0.029263 -0.091696 0.023770 0.056709 0.043275 
3.604323 17.829211 -24.170683 -3.423100 -4.439116 16.622921 -12.204981 3.288496 4.632818 -1.960726 -4.289920 -35.621087 2.440201 2.720758 37.598985 1.866118 9.985547 -7.694556 1.099580 0.012841 -28.812720 13.650462 -1.116450 3.974898 12.329005 3.250088 -14.692424 2.339028 5.307191 -0.356552 -0.576494 5.272173 5.029611 1.521299 -0.374346 -30.240456 -1.757281 6.547340 -7.490392 0.672870 -0.996464 -5.617316 -8.097023 -2.557672 1.943555 13.861550 -6.228662 -9.233440 -3.368068 -0.345243 -0.530397 -0.029571 0.055147 -0.004148 -4.184430 12.868382 0.425799 -61.410555 5.578016 6.148335 1.163597 -39.979549 -2.975565 9.982257 -0.826420 -0.061544 -0.203817 0.138515 -0.040102 -0.111112 -0.027716 -0.054349 -0.013260 0.118874 -0.038884 21.486323 0.114964 3.375138 66.253930 1.937614 4.037293 2.046889 33.387542 -0.527668 0.219656 5.513417 0.081651 -0.023645 0.038234 -0.042742 0.073751 0.031118 -0.084384 0.023400 0.058739 0.043698 
